<mxfile host="app.diagrams.net" modified="2023-09-10T00:54:51.526Z" agent="Mozilla/5.0 (Windows NT 10.0; Win64; x64; rv:109.0) Gecko/20100101 Firefox/117.0" etag="KH34cFz_OU-MMd8y4x-B" version="21.7.4" type="device">
  <diagram name="Página-1" id="EHBQAu-ulIOe7TlX2zre">
    <mxGraphModel dx="1434" dy="792" grid="1" gridSize="10" guides="1" tooltips="1" connect="1" arrows="1" fold="1" page="1" pageScale="1" pageWidth="827" pageHeight="1169" math="0" shadow="0">
      <root>
        <mxCell id="0" />
        <mxCell id="1" parent="0" />
        <mxCell id="r66bkmFOE1G9wO80CJL8-1" value="" style="strokeWidth=2;html=1;shape=mxgraph.flowchart.start_2;whiteSpace=wrap;" vertex="1" parent="1">
          <mxGeometry x="120" y="107.5" width="30" height="30" as="geometry" />
        </mxCell>
        <mxCell id="r66bkmFOE1G9wO80CJL8-5" style="edgeStyle=orthogonalEdgeStyle;rounded=0;orthogonalLoop=1;jettySize=auto;html=1;entryX=0;entryY=0.5;entryDx=0;entryDy=0;" edge="1" parent="1" source="r66bkmFOE1G9wO80CJL8-2" target="r66bkmFOE1G9wO80CJL8-4">
          <mxGeometry relative="1" as="geometry" />
        </mxCell>
        <mxCell id="r66bkmFOE1G9wO80CJL8-2" value="Inicia sesión y se mantiene en la pantalla principal" style="rounded=1;whiteSpace=wrap;html=1;" vertex="1" parent="1">
          <mxGeometry x="210" y="80" width="120" height="85" as="geometry" />
        </mxCell>
        <mxCell id="r66bkmFOE1G9wO80CJL8-3" value="" style="endArrow=classic;html=1;rounded=0;exitX=1;exitY=0.5;exitDx=0;exitDy=0;exitPerimeter=0;entryX=0;entryY=0.5;entryDx=0;entryDy=0;" edge="1" parent="1" source="r66bkmFOE1G9wO80CJL8-1" target="r66bkmFOE1G9wO80CJL8-2">
          <mxGeometry width="50" height="50" relative="1" as="geometry">
            <mxPoint x="270" y="412.5" as="sourcePoint" />
            <mxPoint x="320" y="362.5" as="targetPoint" />
          </mxGeometry>
        </mxCell>
        <mxCell id="r66bkmFOE1G9wO80CJL8-9" style="edgeStyle=orthogonalEdgeStyle;rounded=0;orthogonalLoop=1;jettySize=auto;html=1;entryX=0.5;entryY=0;entryDx=0;entryDy=0;" edge="1" parent="1" source="r66bkmFOE1G9wO80CJL8-4" target="r66bkmFOE1G9wO80CJL8-6">
          <mxGeometry relative="1" as="geometry" />
        </mxCell>
        <mxCell id="r66bkmFOE1G9wO80CJL8-4" value="Presiona la opción &quot;Registrar mi medicación consumida&quot;" style="rounded=1;whiteSpace=wrap;html=1;" vertex="1" parent="1">
          <mxGeometry x="390" y="80" width="120" height="85" as="geometry" />
        </mxCell>
        <mxCell id="r66bkmFOE1G9wO80CJL8-10" style="edgeStyle=orthogonalEdgeStyle;rounded=0;orthogonalLoop=1;jettySize=auto;html=1;entryX=0.5;entryY=0;entryDx=0;entryDy=0;" edge="1" parent="1" source="r66bkmFOE1G9wO80CJL8-6" target="r66bkmFOE1G9wO80CJL8-7">
          <mxGeometry relative="1" as="geometry" />
        </mxCell>
        <mxCell id="r66bkmFOE1G9wO80CJL8-6" value="Se despliega la página de registro de medicación" style="rounded=1;whiteSpace=wrap;html=1;" vertex="1" parent="1">
          <mxGeometry x="390" y="220" width="120" height="85" as="geometry" />
        </mxCell>
        <mxCell id="r66bkmFOE1G9wO80CJL8-11" style="edgeStyle=orthogonalEdgeStyle;rounded=0;orthogonalLoop=1;jettySize=auto;html=1;entryX=0.5;entryY=0;entryDx=0;entryDy=0;" edge="1" parent="1" source="r66bkmFOE1G9wO80CJL8-7" target="r66bkmFOE1G9wO80CJL8-8">
          <mxGeometry relative="1" as="geometry" />
        </mxCell>
        <mxCell id="r66bkmFOE1G9wO80CJL8-7" value="Se completa la información requerida sobre los medicamentos" style="rounded=1;whiteSpace=wrap;html=1;" vertex="1" parent="1">
          <mxGeometry x="390" y="360" width="120" height="85" as="geometry" />
        </mxCell>
        <mxCell id="r66bkmFOE1G9wO80CJL8-13" style="edgeStyle=orthogonalEdgeStyle;rounded=0;orthogonalLoop=1;jettySize=auto;html=1;" edge="1" parent="1" source="r66bkmFOE1G9wO80CJL8-8" target="r66bkmFOE1G9wO80CJL8-12">
          <mxGeometry relative="1" as="geometry" />
        </mxCell>
        <mxCell id="r66bkmFOE1G9wO80CJL8-8" value="Presiona la opción &quot;Registrar medicación&quot;" style="rounded=1;whiteSpace=wrap;html=1;" vertex="1" parent="1">
          <mxGeometry x="390" y="499.5" width="120" height="85" as="geometry" />
        </mxCell>
        <mxCell id="r66bkmFOE1G9wO80CJL8-12" value="" style="ellipse;shape=doubleEllipse;whiteSpace=wrap;html=1;aspect=fixed;perimeterSpacing=0;strokeWidth=2;" vertex="1" parent="1">
          <mxGeometry x="630" y="522" width="40" height="40" as="geometry" />
        </mxCell>
      </root>
    </mxGraphModel>
  </diagram>
</mxfile>
